<svg version="1.1" xmlns="http://www.w3.org/2000/svg" xmlns:xlink="http://www.w3.org/1999/xlink" x="0px" y="0px" width="60px" height="60px" viewBox="0 0 60 60" enable-background="new 0 0 60 60" xml:space="preserve">
    <path style="stroke-width:1.5px;" fill="#e9e9e9" stroke="#e0e0e0" d="M52.424,25.284c-6.397,0-12.794,0.003-19.191-0.003c-1.115-0.001-1.569,0.529-1.543,1.635c0.042,1.798,0.01,3.598,0.011,5.397c0.001,1.652,0.177,1.872,1.767,2.073c2.139,0.272,4.278,0.541,6.422,0.773			c0.634,0.069,1.024,0.188,1.017,0.974c-0.034,3.678-0.027,7.356-0.004,11.034c0.004,0.655-0.213,0.891-0.876,0.969c-2.906,0.343-5.813,0.436-8.731,0.216c-5.615-0.422-9.067-3.043-10.371-8.325c-1.536-6.217-1.524-12.514-0.043-18.754c1.09-4.59,3.995-7.431,8.673-8.362c1.532-0.305,3.084-0.456,4.641-0.5c4.97-0.142,9.895,0.247,14.763,1.297c1.467,0.317,2.011-0.143,2.033-1.638c0.027-1.758,0.006-3.518,0.086-5.273c0.055-1.203-0.454-1.852-1.589-2.167c-1.889-0.526-3.812-0.852-5.741-1.179c-0.076-0.013-0.154-0.017-0.231-0.027l0.024-0.003C32.366,1.008,22.828,3.47,22.828,3.47c-5.962,1.174-10.895,3.81-13.762,9.465c-1.687,3.327-2.395,6.915-2.82,10.58c-0.006,0.049-0.012,0.125-0.018,0.208c-0.407,4.412-0.157,9.58,0.017,12.138c0,0.073-0.004,0.143-0.004,0.216c0.04,0.435,0.079,0.86,0.119,1.289c0.005,0.063,0.009,0.101,0.009,0.101h0c0.083,0.909,0.175,1.812,0.322,2.707c1.461,8.877,6.214,14.149,14.96,16.136c8.993,2.043,18.015,1.548,26.99-0.224c4.106-0.812,5.304-2.269,5.328-6.374c0.045-7.597,0.005-15.193,0.023-22.79C53.994,25.815,53.515,25.284,52.424,25.284z"/>
</svg>
