<?xml version="1.0" encoding="utf-8"?>
<!-- Generator: Adobe Illustrator 16.0.0, SVG Export Plug-In . SVG Version: 6.00 Build 0)  -->
<!DOCTYPE svg PUBLIC "-//W3C//DTD SVG 1.1//EN" "http://www.w3.org/Graphics/SVG/1.1/DTD/svg11.dtd">
<svg version="1.1" id="Layer_1" xmlns="http://www.w3.org/2000/svg" xmlns:xlink="http://www.w3.org/1999/xlink" x="0px" y="0px"
	 width="100px" height="100px" viewBox="148 0 100 100" xml:space="preserve">
<path fill="#007076" d="M147.657,13.436c0-3.207,1.122-5.854,3.368-7.938c2.245-2.084,5.164-3.127,8.756-3.127c3.529,0,6.383,1.026,8.564,3.079
	c2.245,2.117,3.368,4.875,3.368,8.275c0,3.079-1.09,5.645-3.271,7.697c-2.245,2.117-5.196,3.176-8.852,3.176h-0.097
	c-3.528,0-6.382-1.059-8.564-3.176C148.747,19.305,147.657,16.644,147.657,13.436z M148.908,97.63V33.354h21.362V97.63H148.908z
	 M182.104,97.63h21.361V61.74c0-2.246,0.257-3.978,0.77-5.197c0.897-2.181,2.261-4.025,4.09-5.532
	c1.828-1.508,4.121-2.262,6.88-2.262c7.184,0,10.776,4.843,10.776,14.53V97.63h21.361V60.777c0-9.495-2.246-16.695-6.735-21.603
	c-4.49-4.907-10.424-7.361-17.802-7.361c-8.274,0-14.722,3.56-19.34,10.681v0.192h-0.097l0.097-0.192v-9.142h-21.361
	c0.128,2.053,0.193,8.436,0.193,19.148C182.297,63.214,182.232,78.257,182.104,97.63z"/>
</svg>
